<mxfile host="app.diagrams.net" agent="Mozilla/5.0 (Windows NT 10.0; Win64; x64) AppleWebKit/537.36 (KHTML, like Gecko) Chrome/129.0.0.0 Safari/537.36" version="24.7.17">
  <diagram name="Page-1" id="pN1XQlbYyUQTMrj6d_k9">
    <mxGraphModel dx="3235" dy="1088" grid="1" gridSize="10" guides="1" tooltips="1" connect="1" arrows="1" fold="1" page="1" pageScale="1" pageWidth="1485" pageHeight="922" math="0" shadow="0">
      <root>
        <mxCell id="0" />
        <mxCell id="1" parent="0" />
        <mxCell id="QrmjmrRoubQutK9kr2hU-14" value="" style="whiteSpace=wrap;html=1;" parent="1" vertex="1">
          <mxGeometry x="-108" width="240" height="950" as="geometry" />
        </mxCell>
        <mxCell id="QrmjmrRoubQutK9kr2hU-6" value="" style="whiteSpace=wrap;html=1;" parent="1" vertex="1">
          <mxGeometry x="320" width="930" height="680" as="geometry" />
        </mxCell>
        <mxCell id="QrmjmrRoubQutK9kr2hU-4" value="" style="whiteSpace=wrap;html=1;" parent="1" vertex="1">
          <mxGeometry x="320" y="700" width="930" height="250" as="geometry" />
        </mxCell>
        <mxCell id="QrmjmrRoubQutK9kr2hU-3" value="" style="whiteSpace=wrap;html=1;" parent="1" vertex="1">
          <mxGeometry x="615" y="110" width="390" height="460" as="geometry" />
        </mxCell>
        <mxCell id="QrmjmrRoubQutK9kr2hU-23" value="" style="shape=cylinder3;whiteSpace=wrap;html=1;boundedLbl=1;backgroundOutline=1;size=15;" parent="1" vertex="1">
          <mxGeometry x="823.25" y="240" width="133.5" height="150" as="geometry" />
        </mxCell>
        <mxCell id="RIgqfKvu0BtrX93I6pnI-25" value="" style="whiteSpace=wrap;html=1;aspect=fixed;" parent="1" vertex="1">
          <mxGeometry x="830" y="781" width="120" height="120" as="geometry" />
        </mxCell>
        <mxCell id="RIgqfKvu0BtrX93I6pnI-24" value="" style="whiteSpace=wrap;html=1;aspect=fixed;" parent="1" vertex="1">
          <mxGeometry x="670" y="781" width="120" height="120" as="geometry" />
        </mxCell>
        <mxCell id="RIgqfKvu0BtrX93I6pnI-1" value="Chunk" style="strokeWidth=2;html=1;shape=mxgraph.flowchart.multi-document;whiteSpace=wrap;" parent="1" vertex="1">
          <mxGeometry x="291" y="110" width="159" height="60" as="geometry" />
        </mxCell>
        <mxCell id="RIgqfKvu0BtrX93I6pnI-2" value="Chunk" style="strokeWidth=2;html=1;shape=mxgraph.flowchart.multi-document;whiteSpace=wrap;" parent="1" vertex="1">
          <mxGeometry x="291" y="190" width="159" height="60" as="geometry" />
        </mxCell>
        <mxCell id="RIgqfKvu0BtrX93I6pnI-3" value="Chunk" style="strokeWidth=2;html=1;shape=mxgraph.flowchart.multi-document;whiteSpace=wrap;" parent="1" vertex="1">
          <mxGeometry x="291" y="270" width="159" height="60" as="geometry" />
        </mxCell>
        <mxCell id="RIgqfKvu0BtrX93I6pnI-5" value="Chunk" style="strokeWidth=2;html=1;shape=mxgraph.flowchart.multi-document;whiteSpace=wrap;" parent="1" vertex="1">
          <mxGeometry x="291" y="578" width="169" height="60" as="geometry" />
        </mxCell>
        <mxCell id="RIgqfKvu0BtrX93I6pnI-6" value="" style="endArrow=none;dashed=1;html=1;dashPattern=1 3;strokeWidth=3;rounded=0;" parent="1" edge="1">
          <mxGeometry width="50" height="50" relative="1" as="geometry">
            <mxPoint x="334" y="557" as="sourcePoint" />
            <mxPoint x="334.40999999999997" y="429" as="targetPoint" />
          </mxGeometry>
        </mxCell>
        <mxCell id="RIgqfKvu0BtrX93I6pnI-8" value="PDF Layout Reader" style="whiteSpace=wrap;html=1;" parent="1" vertex="1">
          <mxGeometry x="-65" y="270" width="150" height="150" as="geometry" />
        </mxCell>
        <mxCell id="RIgqfKvu0BtrX93I6pnI-9" value="" style="shape=flexArrow;endArrow=classic;html=1;rounded=0;verticalAlign=middle;" parent="1" edge="1">
          <mxGeometry width="50" height="50" relative="1" as="geometry">
            <mxPoint x="160" y="450" as="sourcePoint" />
            <mxPoint x="281" y="450" as="targetPoint" />
          </mxGeometry>
        </mxCell>
        <mxCell id="RIgqfKvu0BtrX93I6pnI-13" value="PDF" style="whiteSpace=wrap;html=1;shape=mxgraph.basic.document" parent="1" vertex="1">
          <mxGeometry x="-370" width="156" height="210" as="geometry" />
        </mxCell>
        <mxCell id="RIgqfKvu0BtrX93I6pnI-18" value="Chunk" style="strokeWidth=2;html=1;shape=mxgraph.flowchart.multi-document;whiteSpace=wrap;" parent="1" vertex="1">
          <mxGeometry x="291" y="350" width="159" height="60" as="geometry" />
        </mxCell>
        <mxCell id="RIgqfKvu0BtrX93I6pnI-19" value="" style="shape=cylinder3;whiteSpace=wrap;html=1;boundedLbl=1;backgroundOutline=1;size=15;" parent="1" vertex="1">
          <mxGeometry x="716.5" y="283" width="133.5" height="150" as="geometry" />
        </mxCell>
        <mxCell id="RIgqfKvu0BtrX93I6pnI-21" value="Embedding" style="whiteSpace=wrap;html=1;aspect=fixed;direction=south;" parent="1" vertex="1">
          <mxGeometry x="600" y="800" width="120" height="120" as="geometry" />
        </mxCell>
        <mxCell id="RIgqfKvu0BtrX93I6pnI-22" value="&lt;div&gt;NLP Feature 1&lt;/div&gt;" style="whiteSpace=wrap;html=1;aspect=fixed;" parent="1" vertex="1">
          <mxGeometry x="743" y="800" width="120" height="120" as="geometry" />
        </mxCell>
        <mxCell id="RIgqfKvu0BtrX93I6pnI-23" value="&lt;div&gt;NLP Feature 2&lt;/div&gt;" style="whiteSpace=wrap;html=1;aspect=fixed;" parent="1" vertex="1">
          <mxGeometry x="890" y="800" width="120" height="120" as="geometry" />
        </mxCell>
        <mxCell id="RIgqfKvu0BtrX93I6pnI-26" value="" style="shape=flexArrow;endArrow=classic;html=1;rounded=0;" parent="1" edge="1">
          <mxGeometry width="50" height="50" relative="1" as="geometry">
            <mxPoint x="515" y="379" as="sourcePoint" />
            <mxPoint x="585" y="379" as="targetPoint" />
          </mxGeometry>
        </mxCell>
        <mxCell id="QrmjmrRoubQutK9kr2hU-2" value="Indexing&lt;div&gt;&lt;br&gt;&lt;/div&gt;" style="whiteSpace=wrap;html=1;aspect=fixed;" parent="1" vertex="1">
          <mxGeometry x="790" y="253" width="80" height="80" as="geometry" />
        </mxCell>
        <mxCell id="QrmjmrRoubQutK9kr2hU-5" value="" style="shape=flexArrow;endArrow=classic;html=1;rounded=0;verticalAlign=middle;" parent="1" edge="1">
          <mxGeometry width="50" height="50" relative="1" as="geometry">
            <mxPoint x="-190" y="450" as="sourcePoint" />
            <mxPoint x="-120" y="450" as="targetPoint" />
          </mxGeometry>
        </mxCell>
        <mxCell id="QrmjmrRoubQutK9kr2hU-7" value="" style="shape=doubleArrow;direction=south;whiteSpace=wrap;html=1;" parent="1" vertex="1">
          <mxGeometry x="770" y="499" width="80" height="270" as="geometry" />
        </mxCell>
        <mxCell id="QrmjmrRoubQutK9kr2hU-8" value="Vector Store" style="text;strokeColor=none;fillColor=none;align=center;verticalAlign=middle;spacingLeft=4;spacingRight=4;overflow=hidden;points=[[0,0.5],[1,0.5]];portConstraint=eastwest;rotatable=0;whiteSpace=wrap;html=1;fontSize=20;fontStyle=1" parent="1" vertex="1">
          <mxGeometry x="615" y="110" width="167" height="60" as="geometry" />
        </mxCell>
        <mxCell id="QrmjmrRoubQutK9kr2hU-9" value="" style="shape=cylinder3;whiteSpace=wrap;html=1;boundedLbl=1;backgroundOutline=1;size=15;" parent="1" vertex="1">
          <mxGeometry x="636.5" y="320" width="133.5" height="150" as="geometry" />
        </mxCell>
        <mxCell id="QrmjmrRoubQutK9kr2hU-10" value="" style="shape=cylinder3;whiteSpace=wrap;html=1;boundedLbl=1;backgroundOutline=1;size=15;" parent="1" vertex="1">
          <mxGeometry x="760" y="320" width="140" height="157" as="geometry" />
        </mxCell>
        <mxCell id="QrmjmrRoubQutK9kr2hU-11" value="Indexing&lt;div&gt;&lt;br&gt;&lt;/div&gt;" style="whiteSpace=wrap;html=1;aspect=fixed;" parent="1" vertex="1">
          <mxGeometry x="743" y="300" width="80" height="80" as="geometry" />
        </mxCell>
        <mxCell id="QrmjmrRoubQutK9kr2hU-12" value="Indexing&lt;div&gt;&lt;br&gt;&lt;/div&gt;" style="whiteSpace=wrap;html=1;aspect=fixed;" parent="1" vertex="1">
          <mxGeometry x="810" y="320" width="80" height="80" as="geometry" />
        </mxCell>
        <mxCell id="QrmjmrRoubQutK9kr2hU-13" value="LLamaIndex" style="text;strokeColor=none;fillColor=none;align=left;verticalAlign=middle;spacingLeft=4;spacingRight=4;overflow=hidden;points=[[0,0.5],[1,0.5]];portConstraint=eastwest;rotatable=0;whiteSpace=wrap;html=1;fontSize=20;fontStyle=1;labelBorderColor=none;labelBackgroundColor=default;" parent="1" vertex="1">
          <mxGeometry x="320" width="167" height="60" as="geometry" />
        </mxCell>
        <mxCell id="QrmjmrRoubQutK9kr2hU-16" value="3rd Party Parser" style="text;strokeColor=none;fillColor=none;align=left;verticalAlign=middle;spacingLeft=4;spacingRight=4;overflow=hidden;points=[[0,0.5],[1,0.5]];portConstraint=eastwest;rotatable=0;whiteSpace=wrap;html=1;fontSize=20;fontStyle=1;labelBorderColor=none;labelBackgroundColor=default;" parent="1" vertex="1">
          <mxGeometry x="-108" width="130" height="60" as="geometry" />
        </mxCell>
        <mxCell id="QrmjmrRoubQutK9kr2hU-18" value="PDF HTML Detector" style="whiteSpace=wrap;html=1;" parent="1" vertex="1">
          <mxGeometry x="-65" y="450" width="150" height="150" as="geometry" />
        </mxCell>
        <mxCell id="QrmjmrRoubQutK9kr2hU-19" value="PDF Reader - New Page Parser" style="whiteSpace=wrap;html=1;" parent="1" vertex="1">
          <mxGeometry x="-68" y="88" width="150" height="150" as="geometry" />
        </mxCell>
        <mxCell id="QrmjmrRoubQutK9kr2hU-22" value="NLP Feature Post Processing" style="text;strokeColor=none;fillColor=none;align=left;verticalAlign=middle;spacingLeft=4;spacingRight=4;overflow=hidden;points=[[0,0.5],[1,0.5]];portConstraint=eastwest;rotatable=0;whiteSpace=wrap;html=1;fontSize=20;fontStyle=1;labelBorderColor=none;labelBackgroundColor=default;" parent="1" vertex="1">
          <mxGeometry x="320" y="700" width="167" height="60" as="geometry" />
        </mxCell>
        <mxCell id="Gcu2kofaheJXPQh8U3BJ-1" value="" style="whiteSpace=wrap;html=1;" parent="1" vertex="1">
          <mxGeometry x="1360" width="380" height="950" as="geometry" />
        </mxCell>
        <mxCell id="Gcu2kofaheJXPQh8U3BJ-3" value="" style="shape=flexArrow;endArrow=classic;html=1;rounded=0;verticalAlign=middle;" parent="1" edge="1">
          <mxGeometry width="50" height="50" relative="1" as="geometry">
            <mxPoint x="1280" y="370" as="sourcePoint" />
            <mxPoint x="1350" y="370.2295081967213" as="targetPoint" />
          </mxGeometry>
        </mxCell>
        <mxCell id="Gcu2kofaheJXPQh8U3BJ-4" value="Chunk" style="strokeWidth=2;html=1;shape=mxgraph.flowchart.multi-document;whiteSpace=wrap;" parent="1" vertex="1">
          <mxGeometry x="1430" y="110" width="164" height="60" as="geometry" />
        </mxCell>
        <mxCell id="Gcu2kofaheJXPQh8U3BJ-5" value="Chunk" style="strokeWidth=2;html=1;shape=mxgraph.flowchart.multi-document;whiteSpace=wrap;" parent="1" vertex="1">
          <mxGeometry x="1430" y="240" width="164" height="60" as="geometry" />
        </mxCell>
        <mxCell id="Gcu2kofaheJXPQh8U3BJ-6" value="Chunk" style="strokeWidth=2;html=1;shape=mxgraph.flowchart.multi-document;whiteSpace=wrap;" parent="1" vertex="1">
          <mxGeometry x="1430" y="370" width="164" height="60" as="geometry" />
        </mxCell>
        <mxCell id="Gcu2kofaheJXPQh8U3BJ-7" value="Chunk" style="strokeWidth=2;html=1;shape=mxgraph.flowchart.multi-document;whiteSpace=wrap;" parent="1" vertex="1">
          <mxGeometry x="1430" y="499" width="164" height="60" as="geometry" />
        </mxCell>
        <mxCell id="Gcu2kofaheJXPQh8U3BJ-8" value="Chunk" style="strokeWidth=2;html=1;shape=mxgraph.flowchart.multi-document;whiteSpace=wrap;" parent="1" vertex="1">
          <mxGeometry x="1430" y="630" width="164" height="60" as="geometry" />
        </mxCell>
        <mxCell id="Gcu2kofaheJXPQh8U3BJ-9" value="Retrieval" style="text;strokeColor=none;fillColor=none;align=left;verticalAlign=middle;spacingLeft=4;spacingRight=4;overflow=hidden;points=[[0,0.5],[1,0.5]];portConstraint=eastwest;rotatable=0;whiteSpace=wrap;html=1;fontSize=20;fontStyle=1;labelBorderColor=none;labelBackgroundColor=default;" parent="1" vertex="1">
          <mxGeometry x="1360" width="167" height="60" as="geometry" />
        </mxCell>
        <mxCell id="gmcbrUOOObDj0YMRCatJ-1" value="PDF Element Detector - Text &amp;amp; Image" style="whiteSpace=wrap;html=1;" vertex="1" parent="1">
          <mxGeometry x="-68" y="650" width="150" height="150" as="geometry" />
        </mxCell>
        <mxCell id="gmcbrUOOObDj0YMRCatJ-2" value="TextNode" style="text;html=1;align=center;verticalAlign=middle;whiteSpace=wrap;rounded=0;fontSize=30;" vertex="1" parent="1">
          <mxGeometry x="190" y="400" width="60" height="30" as="geometry" />
        </mxCell>
        <mxCell id="gmcbrUOOObDj0YMRCatJ-3" value="PDF" style="whiteSpace=wrap;html=1;shape=mxgraph.basic.document" vertex="1" parent="1">
          <mxGeometry x="-370" y="267" width="156" height="210" as="geometry" />
        </mxCell>
        <mxCell id="gmcbrUOOObDj0YMRCatJ-4" value="PDF" style="whiteSpace=wrap;html=1;shape=mxgraph.basic.document" vertex="1" parent="1">
          <mxGeometry x="-370" y="740" width="156" height="210" as="geometry" />
        </mxCell>
        <mxCell id="gmcbrUOOObDj0YMRCatJ-6" value="&lt;div&gt;&lt;br&gt;&lt;/div&gt;&lt;div&gt;node_id&lt;/div&gt;&lt;div&gt;page_no&lt;/div&gt;page_text&lt;div&gt;metadata:&amp;nbsp;&lt;/div&gt;&lt;div&gt;{doc_name,&lt;/div&gt;&lt;div&gt;page_id.&lt;/div&gt;&lt;div&gt;html_text:[...]&lt;/div&gt;&lt;div&gt;bboxes:[...]&lt;/div&gt;&lt;div&gt;bb_images:&amp;nbsp;&lt;span style=&quot;background-color: initial;&quot;&gt;[...]&lt;/span&gt;&lt;/div&gt;&lt;div&gt;&lt;span style=&quot;background-color: initial;&quot;&gt;}&lt;/span&gt;&lt;/div&gt;" style="text;html=1;align=left;verticalAlign=middle;whiteSpace=wrap;rounded=0;fontSize=17;" vertex="1" parent="1">
          <mxGeometry x="165" y="450" width="135" height="250" as="geometry" />
        </mxCell>
      </root>
    </mxGraphModel>
  </diagram>
</mxfile>
